<svg width="32" height="32" viewBox="0 0 32 32" fill="none" xmlns="http://www.w3.org/2000/svg">
  <rect width="32" height="32" rx="8" fill="#1E293B"/>
  <path d="M8 12C8 10.8954 8.89543 10 10 10H11C11.1046 10 12 10.8954 12 12V14C12 14.1046 11.1046 15 10 15H8C6.89543 15 6 14.1046 6 13V12C6 10.8954 6.89543 10 8 10Z" fill="#2563EB"/>
  <path d="M8 16C8 14.8954 8.89543 16 10 16H11C11.1046 16 12 16.8954 12 18V20C12 21.1046 11.1046 22 10 22H8C6.89543 22 6 21.1046 6 20V16C6 14.8954 6.89543 16 8 16Z" fill="#2563EB"/>
  <path d="M16 8C16 6.89543 16.8954 8 18 8H19C19.1046 8 20 8.8954 20 10V12C20 10.8954 19.1046 10 18 10H16C14.8954 10 14 10.8954 14 12V8C14 6.89543 14.8954 8 16 8Z" fill="#2563EB"/>
  <path d="M16 16C16 14.8954 16.8954 16 18 16H19C19.1046 16 20 16.8954 20 18V20C20 21.1046 19.1046 22 18 22H16C14.8954 22 14 21.1046 14 20V16C14 14.8954 14.8954 16 16 16Z" fill="#2563EB"/>
  <circle cx="10" cy="12" r="1" fill="#FFFFFF"/>
  <circle cx="10" cy="18" r="1" fill="#FFFFFF"/>
  <circle cx="18" cy="10" r="1" fill="#FFFFFF"/>
  <circle cx="18" cy="18" r="1" fill="#FFFFFF"/>
</svg>
